<svg width="363" height="105" viewBox="0 0 363 105" fill="none" xmlns="http://www.w3.org/2000/svg">
<path d="M249.935 85.5989V73.0374C245.144 76.2749 237.115 79.1239 229.604 79.1239C218.337 79.1239 214.064 73.8144 213.416 62.9364H250.583V54.7779C250.583 32.1154 240.611 23.5684 225.201 23.5684C206.423 23.5684 197.488 37.9429 197.488 57.6269C197.488 80.2894 208.625 91.2969 228.309 91.2969C238.151 91.2969 245.403 88.7069 249.935 85.5989ZM346.283 91.2969C353.406 91.2969 358.456 90.0019 362.212 87.2824V74.7209C358.327 77.4404 353.665 79.1239 347.19 79.1239C336.182 79.1239 331.65 70.5769 331.65 57.1089C331.65 42.9934 337.218 35.7414 347.319 35.7414C353.276 35.7414 359.104 37.8134 362.212 39.7559V26.6764C358.974 24.8634 353.276 23.5684 345.636 23.5684C325.952 23.5684 315.721 37.6839 315.721 57.4974C315.721 79.2534 325.693 91.2969 346.283 91.2969ZM108.78 24.8634V50.6339H88.1898V24.8634H72.7793V90.0019H88.1898V62.8069H108.78V90.0019H124.191V24.8634H108.78ZM193.732 77.8289H186.869V24.8634H141.932V30.4319C141.932 46.3604 140.896 66.9509 135.457 77.8289H130.666V104.894H144.911V90.0019H179.487V104.894H193.732V77.8289ZM299.145 90.0019H316.628L291.893 54.9074L313.649 24.8634H298.109L276.353 54.9074V24.8634H260.943V90.0019H276.353V58.0154L299.145 90.0019ZM224.942 35.7414C232.582 35.7414 234.913 42.0869 234.913 50.2454V51.5404H213.416C213.805 41.1804 217.56 35.7414 224.942 35.7414ZM171.458 77.8289H149.702C153.976 67.9869 155.141 50.2454 155.141 38.9789V37.0364H171.458V77.8289Z" fill="black"/>
<path d="M44.1595 90.0025H59.829V0H37.037C14.1155 0 2.072 11.7845 2.072 29.1375C2.072 42.994 8.6765 51.1525 20.461 59.57L0 90.0025H16.9645L39.7565 55.944L31.857 50.6345C22.274 44.1595 17.612 39.109 17.612 28.231C17.612 18.648 24.346 12.173 37.1665 12.173H44.1595V90.0025Z" fill="#FC3F1D"/>
</svg>
